<mxfile host="Electron" modified="2024-05-11T19:31:04.176Z" agent="Mozilla/5.0 (Windows NT 10.0; Win64; x64) AppleWebKit/537.36 (KHTML, like Gecko) draw.io/21.2.8 Chrome/112.0.5615.165 Electron/24.2.0 Safari/537.36" etag="Ydr9xzfh4unb8dZMb2Jw" version="21.2.8" type="device">
  <diagram name="Página-1" id="qGU62RUMDF7yLZdWHexL">
    <mxGraphModel dx="1720" dy="2008" grid="1" gridSize="10" guides="1" tooltips="1" connect="1" arrows="1" fold="1" page="1" pageScale="1" pageWidth="827" pageHeight="1169" math="0" shadow="0">
      <root>
        <mxCell id="0" />
        <mxCell id="1" parent="0" />
        <mxCell id="La6jZJayL8-oUf0QyG6G-1" value="Gestión de Property" style="swimlane;whiteSpace=wrap;html=1;strokeColor=#330000;shadow=0;fillColor=#CDA2BE;" parent="1" vertex="1">
          <mxGeometry x="360" y="-514" width="200" height="680" as="geometry" />
        </mxCell>
        <mxCell id="La6jZJayL8-oUf0QyG6G-6" value="Nueva Property" style="ellipse;whiteSpace=wrap;html=1;fillColor=#CDA2BE;" parent="La6jZJayL8-oUf0QyG6G-1" vertex="1">
          <mxGeometry x="50" y="40" width="100" height="40" as="geometry" />
        </mxCell>
        <mxCell id="La6jZJayL8-oUf0QyG6G-7" value="Editar Property" style="ellipse;whiteSpace=wrap;html=1;fillColor=#CDA2BE;" parent="La6jZJayL8-oUf0QyG6G-1" vertex="1">
          <mxGeometry x="50" y="120" width="100" height="40" as="geometry" />
        </mxCell>
        <mxCell id="La6jZJayL8-oUf0QyG6G-8" value="Borrar Property" style="ellipse;whiteSpace=wrap;html=1;fillColor=#CDA2BE;" parent="La6jZJayL8-oUf0QyG6G-1" vertex="1">
          <mxGeometry x="50" y="200" width="100" height="40" as="geometry" />
        </mxCell>
        <mxCell id="La6jZJayL8-oUf0QyG6G-9" value="Información Property" style="ellipse;whiteSpace=wrap;html=1;fillColor=#CDA2BE;" parent="La6jZJayL8-oUf0QyG6G-1" vertex="1">
          <mxGeometry x="50" y="280" width="100" height="40" as="geometry" />
        </mxCell>
        <mxCell id="La6jZJayL8-oUf0QyG6G-11" value="Obtener Properties" style="ellipse;whiteSpace=wrap;html=1;fillColor=#CDA2BE;" parent="La6jZJayL8-oUf0QyG6G-1" vertex="1">
          <mxGeometry x="50" y="360" width="100" height="40" as="geometry" />
        </mxCell>
        <mxCell id="La6jZJayL8-oUf0QyG6G-16" value="Información Climatica" style="ellipse;whiteSpace=wrap;html=1;fillColor=#CDA2BE;" parent="La6jZJayL8-oUf0QyG6G-1" vertex="1">
          <mxGeometry x="50" y="440" width="100" height="40" as="geometry" />
        </mxCell>
        <mxCell id="La6jZJayL8-oUf0QyG6G-17" value="Información del Inversor" style="ellipse;whiteSpace=wrap;html=1;fillColor=#CDA2BE;" parent="La6jZJayL8-oUf0QyG6G-1" vertex="1">
          <mxGeometry x="50" y="520" width="100" height="40" as="geometry" />
        </mxCell>
        <mxCell id="La6jZJayL8-oUf0QyG6G-26" value="Enviar invitación" style="ellipse;whiteSpace=wrap;html=1;fillColor=#CDA2BE;" parent="La6jZJayL8-oUf0QyG6G-1" vertex="1">
          <mxGeometry x="50" y="600" width="100" height="40" as="geometry" />
        </mxCell>
        <mxCell id="La6jZJayL8-oUf0QyG6G-2" value="Gestión de Smart Device" style="swimlane;whiteSpace=wrap;html=1;fillColor=#7EA6E0;" parent="1" vertex="1">
          <mxGeometry x="360" y="690" width="200" height="360" as="geometry" />
        </mxCell>
        <mxCell id="La6jZJayL8-oUf0QyG6G-10" value="Nuevo Smart Device" style="ellipse;whiteSpace=wrap;html=1;fillColor=#7EA6E0;" parent="La6jZJayL8-oUf0QyG6G-2" vertex="1">
          <mxGeometry x="50" y="40" width="100" height="40" as="geometry" />
        </mxCell>
        <mxCell id="La6jZJayL8-oUf0QyG6G-12" value="Editar Smart Device" style="ellipse;whiteSpace=wrap;html=1;fillColor=#7EA6E0;" parent="La6jZJayL8-oUf0QyG6G-2" vertex="1">
          <mxGeometry x="50" y="120" width="100" height="40" as="geometry" />
        </mxCell>
        <mxCell id="La6jZJayL8-oUf0QyG6G-13" value="Borrar Smart Device" style="ellipse;whiteSpace=wrap;html=1;fillColor=#7EA6E0;" parent="La6jZJayL8-oUf0QyG6G-2" vertex="1">
          <mxGeometry x="50" y="200" width="100" height="40" as="geometry" />
        </mxCell>
        <mxCell id="La6jZJayL8-oUf0QyG6G-31" value="Infromación Smart Device" style="ellipse;whiteSpace=wrap;html=1;fillColor=#7EA6E0;" parent="La6jZJayL8-oUf0QyG6G-2" vertex="1">
          <mxGeometry x="50" y="280" width="100" height="40" as="geometry" />
        </mxCell>
        <mxCell id="La6jZJayL8-oUf0QyG6G-3" value="Gestión de Scenes" style="swimlane;whiteSpace=wrap;html=1;fillColor=#97D077;" parent="1" vertex="1">
          <mxGeometry x="360" y="-1130" width="200" height="600" as="geometry" />
        </mxCell>
        <mxCell id="La6jZJayL8-oUf0QyG6G-32" value="Nueva Scene" style="ellipse;whiteSpace=wrap;html=1;fillColor=#97D077;" parent="La6jZJayL8-oUf0QyG6G-3" vertex="1">
          <mxGeometry x="50" y="40" width="100" height="40" as="geometry" />
        </mxCell>
        <mxCell id="La6jZJayL8-oUf0QyG6G-33" value="Editar Scene" style="ellipse;whiteSpace=wrap;html=1;fillColor=#97D077;" parent="La6jZJayL8-oUf0QyG6G-3" vertex="1">
          <mxGeometry x="50" y="120" width="100" height="40" as="geometry" />
        </mxCell>
        <mxCell id="La6jZJayL8-oUf0QyG6G-35" value="Borrar Scene" style="ellipse;whiteSpace=wrap;html=1;fillColor=#97D077;" parent="La6jZJayL8-oUf0QyG6G-3" vertex="1">
          <mxGeometry x="50" y="200" width="100" height="40" as="geometry" />
        </mxCell>
        <mxCell id="La6jZJayL8-oUf0QyG6G-36" value="Añadir Smart Device" style="ellipse;whiteSpace=wrap;html=1;fillColor=#97D077;" parent="La6jZJayL8-oUf0QyG6G-3" vertex="1">
          <mxGeometry x="50" y="280" width="100" height="40" as="geometry" />
        </mxCell>
        <mxCell id="La6jZJayL8-oUf0QyG6G-37" value="Editar Smart Device" style="ellipse;whiteSpace=wrap;html=1;fillColor=#97D077;" parent="La6jZJayL8-oUf0QyG6G-3" vertex="1">
          <mxGeometry x="50" y="360" width="100" height="40" as="geometry" />
        </mxCell>
        <mxCell id="La6jZJayL8-oUf0QyG6G-38" value="Borrar Smart Device" style="ellipse;whiteSpace=wrap;html=1;fillColor=#97D077;" parent="La6jZJayL8-oUf0QyG6G-3" vertex="1">
          <mxGeometry x="50" y="440" width="100" height="40" as="geometry" />
        </mxCell>
        <mxCell id="La6jZJayL8-oUf0QyG6G-39" value="Aplicar Scene" style="ellipse;whiteSpace=wrap;html=1;fillColor=#97D077;" parent="La6jZJayL8-oUf0QyG6G-3" vertex="1">
          <mxGeometry x="50" y="520" width="100" height="40" as="geometry" />
        </mxCell>
        <mxCell id="La6jZJayL8-oUf0QyG6G-5" value="Autentificación" style="swimlane;whiteSpace=wrap;html=1;fillColor=#FFD966;" parent="1" vertex="1">
          <mxGeometry x="320" y="210" width="280" height="440" as="geometry" />
        </mxCell>
        <mxCell id="La6jZJayL8-oUf0QyG6G-40" value="Iniciar sesión" style="ellipse;whiteSpace=wrap;html=1;fillColor=#FFD966;" parent="La6jZJayL8-oUf0QyG6G-5" vertex="1">
          <mxGeometry x="50" y="40" width="100" height="40" as="geometry" />
        </mxCell>
        <mxCell id="La6jZJayL8-oUf0QyG6G-41" value="Crear usuario" style="ellipse;whiteSpace=wrap;html=1;fillColor=#FFD966;" parent="La6jZJayL8-oUf0QyG6G-5" vertex="1">
          <mxGeometry x="50" y="120" width="100" height="40" as="geometry" />
        </mxCell>
        <mxCell id="La6jZJayL8-oUf0QyG6G-42" value="Borrar usuario" style="ellipse;whiteSpace=wrap;html=1;fillColor=#FFD966;" parent="La6jZJayL8-oUf0QyG6G-5" vertex="1">
          <mxGeometry x="50" y="200" width="100" height="40" as="geometry" />
        </mxCell>
        <mxCell id="La6jZJayL8-oUf0QyG6G-43" value="Cerrar sesión" style="ellipse;whiteSpace=wrap;html=1;fillColor=#FFD966;" parent="La6jZJayL8-oUf0QyG6G-5" vertex="1">
          <mxGeometry x="50" y="280" width="100" height="40" as="geometry" />
        </mxCell>
        <mxCell id="La6jZJayL8-oUf0QyG6G-44" value="Editar perfil" style="ellipse;whiteSpace=wrap;html=1;fillColor=#FFD966;" parent="La6jZJayL8-oUf0QyG6G-5" vertex="1">
          <mxGeometry x="50" y="360" width="100" height="40" as="geometry" />
        </mxCell>
        <mxCell id="La6jZJayL8-oUf0QyG6G-45" value="&amp;lt;&amp;lt;include&amp;gt;&amp;gt;" style="html=1;verticalAlign=bottom;labelBackgroundColor=none;endArrow=open;endFill=0;dashed=1;rounded=0;exitX=1;exitY=0.5;exitDx=0;exitDy=0;entryX=1;entryY=0.5;entryDx=0;entryDy=0;edgeStyle=orthogonalEdgeStyle;" parent="La6jZJayL8-oUf0QyG6G-5" source="La6jZJayL8-oUf0QyG6G-41" target="La6jZJayL8-oUf0QyG6G-40" edge="1">
          <mxGeometry x="-0.125" y="-40" width="160" relative="1" as="geometry">
            <mxPoint x="170" y="130" as="sourcePoint" />
            <mxPoint x="330" y="130" as="targetPoint" />
            <Array as="points">
              <mxPoint x="190" y="140" />
              <mxPoint x="190" y="60" />
            </Array>
            <mxPoint as="offset" />
          </mxGeometry>
        </mxCell>
        <mxCell id="Ixsyqqn0YIwXnsIAuVxs-2" style="edgeStyle=orthogonalEdgeStyle;rounded=0;orthogonalLoop=1;jettySize=auto;html=1;entryX=0;entryY=0.5;entryDx=0;entryDy=0;" edge="1" parent="1" source="La6jZJayL8-oUf0QyG6G-27" target="La6jZJayL8-oUf0QyG6G-40">
          <mxGeometry relative="1" as="geometry" />
        </mxCell>
        <mxCell id="Ixsyqqn0YIwXnsIAuVxs-3" style="edgeStyle=orthogonalEdgeStyle;rounded=0;orthogonalLoop=1;jettySize=auto;html=1;entryX=0;entryY=0.5;entryDx=0;entryDy=0;" edge="1" parent="1" source="La6jZJayL8-oUf0QyG6G-27" target="La6jZJayL8-oUf0QyG6G-41">
          <mxGeometry relative="1" as="geometry" />
        </mxCell>
        <mxCell id="Ixsyqqn0YIwXnsIAuVxs-12" style="edgeStyle=orthogonalEdgeStyle;rounded=0;orthogonalLoop=1;jettySize=auto;html=1;entryX=0;entryY=0.5;entryDx=0;entryDy=0;" edge="1" parent="1" source="La6jZJayL8-oUf0QyG6G-27" target="La6jZJayL8-oUf0QyG6G-42">
          <mxGeometry relative="1" as="geometry" />
        </mxCell>
        <mxCell id="Ixsyqqn0YIwXnsIAuVxs-13" style="edgeStyle=orthogonalEdgeStyle;rounded=0;orthogonalLoop=1;jettySize=auto;html=1;entryX=0;entryY=0.5;entryDx=0;entryDy=0;" edge="1" parent="1" source="La6jZJayL8-oUf0QyG6G-27" target="La6jZJayL8-oUf0QyG6G-43">
          <mxGeometry relative="1" as="geometry" />
        </mxCell>
        <mxCell id="Ixsyqqn0YIwXnsIAuVxs-14" style="edgeStyle=orthogonalEdgeStyle;rounded=0;orthogonalLoop=1;jettySize=auto;html=1;entryX=0;entryY=0.5;entryDx=0;entryDy=0;" edge="1" parent="1" source="La6jZJayL8-oUf0QyG6G-27" target="La6jZJayL8-oUf0QyG6G-44">
          <mxGeometry relative="1" as="geometry" />
        </mxCell>
        <mxCell id="Ixsyqqn0YIwXnsIAuVxs-39" style="edgeStyle=orthogonalEdgeStyle;rounded=0;orthogonalLoop=1;jettySize=auto;html=1;entryX=0;entryY=0.5;entryDx=0;entryDy=0;" edge="1" parent="1" source="La6jZJayL8-oUf0QyG6G-27" target="La6jZJayL8-oUf0QyG6G-26">
          <mxGeometry relative="1" as="geometry">
            <Array as="points">
              <mxPoint x="220" y="176" />
              <mxPoint x="220" y="106" />
            </Array>
          </mxGeometry>
        </mxCell>
        <mxCell id="Ixsyqqn0YIwXnsIAuVxs-40" style="edgeStyle=orthogonalEdgeStyle;rounded=0;orthogonalLoop=1;jettySize=auto;html=1;entryX=0;entryY=0.5;entryDx=0;entryDy=0;" edge="1" parent="1" source="La6jZJayL8-oUf0QyG6G-27" target="La6jZJayL8-oUf0QyG6G-17">
          <mxGeometry relative="1" as="geometry">
            <Array as="points">
              <mxPoint x="220" y="176" />
              <mxPoint x="220" y="26" />
            </Array>
          </mxGeometry>
        </mxCell>
        <mxCell id="Ixsyqqn0YIwXnsIAuVxs-41" style="edgeStyle=orthogonalEdgeStyle;rounded=0;orthogonalLoop=1;jettySize=auto;html=1;entryX=0;entryY=0.5;entryDx=0;entryDy=0;" edge="1" parent="1" source="La6jZJayL8-oUf0QyG6G-27" target="La6jZJayL8-oUf0QyG6G-16">
          <mxGeometry relative="1" as="geometry">
            <Array as="points">
              <mxPoint x="220" y="176" />
              <mxPoint x="220" y="-54" />
            </Array>
          </mxGeometry>
        </mxCell>
        <mxCell id="Ixsyqqn0YIwXnsIAuVxs-42" style="edgeStyle=orthogonalEdgeStyle;rounded=0;orthogonalLoop=1;jettySize=auto;html=1;entryX=0;entryY=0.5;entryDx=0;entryDy=0;" edge="1" parent="1" source="La6jZJayL8-oUf0QyG6G-27" target="La6jZJayL8-oUf0QyG6G-11">
          <mxGeometry relative="1" as="geometry">
            <Array as="points">
              <mxPoint x="220" y="176" />
              <mxPoint x="220" y="-134" />
            </Array>
          </mxGeometry>
        </mxCell>
        <mxCell id="Ixsyqqn0YIwXnsIAuVxs-43" style="edgeStyle=orthogonalEdgeStyle;rounded=0;orthogonalLoop=1;jettySize=auto;html=1;entryX=0;entryY=0.5;entryDx=0;entryDy=0;" edge="1" parent="1" source="La6jZJayL8-oUf0QyG6G-27" target="La6jZJayL8-oUf0QyG6G-9">
          <mxGeometry relative="1" as="geometry">
            <Array as="points">
              <mxPoint x="220" y="176" />
              <mxPoint x="220" y="-214" />
            </Array>
          </mxGeometry>
        </mxCell>
        <mxCell id="Ixsyqqn0YIwXnsIAuVxs-44" style="edgeStyle=orthogonalEdgeStyle;rounded=0;orthogonalLoop=1;jettySize=auto;html=1;entryX=0;entryY=0.5;entryDx=0;entryDy=0;" edge="1" parent="1" source="La6jZJayL8-oUf0QyG6G-27" target="La6jZJayL8-oUf0QyG6G-8">
          <mxGeometry relative="1" as="geometry">
            <Array as="points">
              <mxPoint x="220" y="176" />
              <mxPoint x="220" y="-294" />
            </Array>
          </mxGeometry>
        </mxCell>
        <mxCell id="Ixsyqqn0YIwXnsIAuVxs-45" style="edgeStyle=orthogonalEdgeStyle;rounded=0;orthogonalLoop=1;jettySize=auto;html=1;entryX=0;entryY=0.5;entryDx=0;entryDy=0;" edge="1" parent="1" source="La6jZJayL8-oUf0QyG6G-27" target="La6jZJayL8-oUf0QyG6G-7">
          <mxGeometry relative="1" as="geometry">
            <Array as="points">
              <mxPoint x="220" y="176" />
              <mxPoint x="220" y="-374" />
            </Array>
          </mxGeometry>
        </mxCell>
        <mxCell id="Ixsyqqn0YIwXnsIAuVxs-46" style="edgeStyle=orthogonalEdgeStyle;rounded=0;orthogonalLoop=1;jettySize=auto;html=1;entryX=0;entryY=0.5;entryDx=0;entryDy=0;" edge="1" parent="1" source="La6jZJayL8-oUf0QyG6G-27" target="La6jZJayL8-oUf0QyG6G-6">
          <mxGeometry relative="1" as="geometry">
            <Array as="points">
              <mxPoint x="220" y="176" />
              <mxPoint x="220" y="-454" />
            </Array>
          </mxGeometry>
        </mxCell>
        <mxCell id="Ixsyqqn0YIwXnsIAuVxs-47" style="edgeStyle=orthogonalEdgeStyle;rounded=0;orthogonalLoop=1;jettySize=auto;html=1;entryX=0;entryY=0.5;entryDx=0;entryDy=0;" edge="1" parent="1" source="La6jZJayL8-oUf0QyG6G-27" target="La6jZJayL8-oUf0QyG6G-39">
          <mxGeometry relative="1" as="geometry">
            <Array as="points">
              <mxPoint x="220" y="176" />
              <mxPoint x="220" y="-590" />
            </Array>
          </mxGeometry>
        </mxCell>
        <mxCell id="Ixsyqqn0YIwXnsIAuVxs-48" style="edgeStyle=orthogonalEdgeStyle;rounded=0;orthogonalLoop=1;jettySize=auto;html=1;entryX=0;entryY=0.5;entryDx=0;entryDy=0;" edge="1" parent="1" source="La6jZJayL8-oUf0QyG6G-27" target="La6jZJayL8-oUf0QyG6G-38">
          <mxGeometry relative="1" as="geometry">
            <Array as="points">
              <mxPoint x="220" y="176" />
              <mxPoint x="220" y="-670" />
            </Array>
          </mxGeometry>
        </mxCell>
        <mxCell id="Ixsyqqn0YIwXnsIAuVxs-49" style="edgeStyle=orthogonalEdgeStyle;rounded=0;orthogonalLoop=1;jettySize=auto;html=1;entryX=0;entryY=0.5;entryDx=0;entryDy=0;" edge="1" parent="1" source="La6jZJayL8-oUf0QyG6G-27" target="La6jZJayL8-oUf0QyG6G-37">
          <mxGeometry relative="1" as="geometry">
            <Array as="points">
              <mxPoint x="220" y="176" />
              <mxPoint x="220" y="-750" />
            </Array>
          </mxGeometry>
        </mxCell>
        <mxCell id="Ixsyqqn0YIwXnsIAuVxs-50" style="edgeStyle=orthogonalEdgeStyle;rounded=0;orthogonalLoop=1;jettySize=auto;html=1;entryX=0;entryY=0.5;entryDx=0;entryDy=0;" edge="1" parent="1" source="La6jZJayL8-oUf0QyG6G-27" target="La6jZJayL8-oUf0QyG6G-36">
          <mxGeometry relative="1" as="geometry">
            <Array as="points">
              <mxPoint x="220" y="176" />
              <mxPoint x="220" y="-830" />
            </Array>
          </mxGeometry>
        </mxCell>
        <mxCell id="Ixsyqqn0YIwXnsIAuVxs-51" style="edgeStyle=orthogonalEdgeStyle;rounded=0;orthogonalLoop=1;jettySize=auto;html=1;entryX=0;entryY=0.5;entryDx=0;entryDy=0;" edge="1" parent="1" source="La6jZJayL8-oUf0QyG6G-27" target="La6jZJayL8-oUf0QyG6G-35">
          <mxGeometry relative="1" as="geometry">
            <Array as="points">
              <mxPoint x="220" y="176" />
              <mxPoint x="220" y="-910" />
            </Array>
          </mxGeometry>
        </mxCell>
        <mxCell id="Ixsyqqn0YIwXnsIAuVxs-52" style="edgeStyle=orthogonalEdgeStyle;rounded=0;orthogonalLoop=1;jettySize=auto;html=1;entryX=0;entryY=0.5;entryDx=0;entryDy=0;" edge="1" parent="1" source="La6jZJayL8-oUf0QyG6G-27" target="La6jZJayL8-oUf0QyG6G-33">
          <mxGeometry relative="1" as="geometry">
            <Array as="points">
              <mxPoint x="220" y="176" />
              <mxPoint x="220" y="-990" />
            </Array>
          </mxGeometry>
        </mxCell>
        <mxCell id="Ixsyqqn0YIwXnsIAuVxs-53" style="edgeStyle=orthogonalEdgeStyle;rounded=0;orthogonalLoop=1;jettySize=auto;html=1;entryX=0;entryY=0.5;entryDx=0;entryDy=0;" edge="1" parent="1" source="La6jZJayL8-oUf0QyG6G-27" target="La6jZJayL8-oUf0QyG6G-32">
          <mxGeometry relative="1" as="geometry">
            <Array as="points">
              <mxPoint x="220" y="176" />
              <mxPoint x="220" y="-1070" />
            </Array>
          </mxGeometry>
        </mxCell>
        <mxCell id="Ixsyqqn0YIwXnsIAuVxs-54" style="edgeStyle=orthogonalEdgeStyle;rounded=0;orthogonalLoop=1;jettySize=auto;html=1;entryX=0;entryY=0.5;entryDx=0;entryDy=0;" edge="1" parent="1" source="La6jZJayL8-oUf0QyG6G-27" target="La6jZJayL8-oUf0QyG6G-10">
          <mxGeometry relative="1" as="geometry">
            <Array as="points">
              <mxPoint x="220" y="176" />
              <mxPoint x="220" y="750" />
            </Array>
          </mxGeometry>
        </mxCell>
        <mxCell id="Ixsyqqn0YIwXnsIAuVxs-55" style="edgeStyle=orthogonalEdgeStyle;rounded=0;orthogonalLoop=1;jettySize=auto;html=1;entryX=0;entryY=0.5;entryDx=0;entryDy=0;" edge="1" parent="1" source="La6jZJayL8-oUf0QyG6G-27" target="La6jZJayL8-oUf0QyG6G-12">
          <mxGeometry relative="1" as="geometry">
            <Array as="points">
              <mxPoint x="220" y="176" />
              <mxPoint x="220" y="830" />
            </Array>
          </mxGeometry>
        </mxCell>
        <mxCell id="Ixsyqqn0YIwXnsIAuVxs-56" style="edgeStyle=orthogonalEdgeStyle;rounded=0;orthogonalLoop=1;jettySize=auto;html=1;entryX=0;entryY=0.5;entryDx=0;entryDy=0;" edge="1" parent="1" source="La6jZJayL8-oUf0QyG6G-27" target="La6jZJayL8-oUf0QyG6G-13">
          <mxGeometry relative="1" as="geometry">
            <Array as="points">
              <mxPoint x="220" y="176" />
              <mxPoint x="220" y="910" />
            </Array>
          </mxGeometry>
        </mxCell>
        <mxCell id="Ixsyqqn0YIwXnsIAuVxs-57" style="edgeStyle=orthogonalEdgeStyle;rounded=0;orthogonalLoop=1;jettySize=auto;html=1;entryX=0;entryY=0.5;entryDx=0;entryDy=0;" edge="1" parent="1" source="La6jZJayL8-oUf0QyG6G-27" target="La6jZJayL8-oUf0QyG6G-31">
          <mxGeometry relative="1" as="geometry">
            <Array as="points">
              <mxPoint x="220" y="176" />
              <mxPoint x="220" y="990" />
            </Array>
          </mxGeometry>
        </mxCell>
        <mxCell id="La6jZJayL8-oUf0QyG6G-27" value="User" style="shape=umlActor;verticalLabelPosition=bottom;verticalAlign=top;html=1;outlineConnect=0;fillColor=#FF6666;" parent="1" vertex="1">
          <mxGeometry x="40" y="146" width="30" height="60" as="geometry" />
        </mxCell>
        <mxCell id="La6jZJayL8-oUf0QyG6G-28" value="DB" style="shape=umlActor;verticalLabelPosition=bottom;verticalAlign=top;html=1;outlineConnect=0;fillColor=#FFFF99;" parent="1" vertex="1">
          <mxGeometry x="1030" y="146" width="30" height="60" as="geometry" />
        </mxCell>
        <mxCell id="Ixsyqqn0YIwXnsIAuVxs-6" style="edgeStyle=orthogonalEdgeStyle;rounded=0;orthogonalLoop=1;jettySize=auto;html=1;entryX=0;entryY=0.3333333333333333;entryDx=0;entryDy=0;entryPerimeter=0;exitX=1;exitY=0;exitDx=0;exitDy=0;" edge="1" parent="1" source="La6jZJayL8-oUf0QyG6G-40" target="La6jZJayL8-oUf0QyG6G-28">
          <mxGeometry relative="1" as="geometry">
            <mxPoint x="520" y="270" as="sourcePoint" />
            <Array as="points">
              <mxPoint x="520" y="256" />
              <mxPoint x="520" y="270" />
              <mxPoint x="700" y="270" />
              <mxPoint x="700" y="220" />
              <mxPoint x="830" y="220" />
              <mxPoint x="830" y="166" />
            </Array>
          </mxGeometry>
        </mxCell>
        <mxCell id="Ixsyqqn0YIwXnsIAuVxs-8" value="" style="endArrow=none;html=1;rounded=0;edgeStyle=orthogonalEdgeStyle;exitX=1;exitY=1;exitDx=0;exitDy=0;" edge="1" parent="1" source="La6jZJayL8-oUf0QyG6G-41">
          <mxGeometry width="50" height="50" relative="1" as="geometry">
            <mxPoint x="520" y="350" as="sourcePoint" />
            <mxPoint x="700" y="270" as="targetPoint" />
            <Array as="points">
              <mxPoint x="520" y="364" />
              <mxPoint x="520" y="350" />
              <mxPoint x="700" y="350" />
            </Array>
          </mxGeometry>
        </mxCell>
        <mxCell id="Ixsyqqn0YIwXnsIAuVxs-9" value="" style="endArrow=none;html=1;rounded=0;exitX=1;exitY=0.5;exitDx=0;exitDy=0;edgeStyle=orthogonalEdgeStyle;" edge="1" parent="1" source="La6jZJayL8-oUf0QyG6G-42">
          <mxGeometry width="50" height="50" relative="1" as="geometry">
            <mxPoint x="650" y="460" as="sourcePoint" />
            <mxPoint x="700" y="350" as="targetPoint" />
          </mxGeometry>
        </mxCell>
        <mxCell id="Ixsyqqn0YIwXnsIAuVxs-10" value="" style="endArrow=none;html=1;rounded=0;edgeStyle=orthogonalEdgeStyle;exitX=1;exitY=0.5;exitDx=0;exitDy=0;" edge="1" parent="1">
          <mxGeometry width="50" height="50" relative="1" as="geometry">
            <mxPoint x="470.00000000000045" y="509.99999999999955" as="sourcePoint" />
            <mxPoint x="700" y="430" as="targetPoint" />
            <Array as="points">
              <mxPoint x="700" y="510" />
            </Array>
          </mxGeometry>
        </mxCell>
        <mxCell id="Ixsyqqn0YIwXnsIAuVxs-11" value="" style="endArrow=none;html=1;rounded=0;exitX=1;exitY=0.5;exitDx=0;exitDy=0;edgeStyle=orthogonalEdgeStyle;" edge="1" parent="1">
          <mxGeometry width="50" height="50" relative="1" as="geometry">
            <mxPoint x="470" y="590" as="sourcePoint" />
            <mxPoint x="700" y="510" as="targetPoint" />
          </mxGeometry>
        </mxCell>
        <mxCell id="Ixsyqqn0YIwXnsIAuVxs-15" value="&amp;lt;&amp;lt;include&amp;gt;&amp;gt;" style="html=1;verticalAlign=bottom;labelBackgroundColor=none;endArrow=open;endFill=0;dashed=1;rounded=0;exitX=1;exitY=0.5;exitDx=0;exitDy=0;entryX=1;entryY=0.5;entryDx=0;entryDy=0;edgeStyle=orthogonalEdgeStyle;" edge="1" parent="1" source="La6jZJayL8-oUf0QyG6G-39" target="La6jZJayL8-oUf0QyG6G-7">
          <mxGeometry x="0.0081" y="40" width="160" relative="1" as="geometry">
            <mxPoint x="660" y="1210" as="sourcePoint" />
            <mxPoint x="650" y="-230" as="targetPoint" />
            <Array as="points">
              <mxPoint x="650" y="-590" />
              <mxPoint x="650" y="-374" />
            </Array>
            <mxPoint as="offset" />
          </mxGeometry>
        </mxCell>
        <mxCell id="Ixsyqqn0YIwXnsIAuVxs-18" value="&amp;lt;&amp;lt;include&amp;gt;&amp;gt;" style="html=1;verticalAlign=bottom;labelBackgroundColor=none;endArrow=open;endFill=0;dashed=1;rounded=0;exitX=1;exitY=0.5;exitDx=0;exitDy=0;entryX=1;entryY=0.5;entryDx=0;entryDy=0;edgeStyle=orthogonalEdgeStyle;" edge="1" parent="1" source="La6jZJayL8-oUf0QyG6G-8" target="La6jZJayL8-oUf0QyG6G-13">
          <mxGeometry x="0.0081" y="40" width="160" relative="1" as="geometry">
            <mxPoint x="530" y="-300" as="sourcePoint" />
            <mxPoint x="530" y="-84" as="targetPoint" />
            <Array as="points">
              <mxPoint x="1100" y="-294" />
              <mxPoint x="1100" y="910" />
            </Array>
            <mxPoint as="offset" />
          </mxGeometry>
        </mxCell>
        <mxCell id="Ixsyqqn0YIwXnsIAuVxs-19" value="" style="endArrow=none;html=1;rounded=0;exitX=1;exitY=0.5;exitDx=0;exitDy=0;edgeStyle=orthogonalEdgeStyle;" edge="1" parent="1">
          <mxGeometry width="50" height="50" relative="1" as="geometry">
            <mxPoint x="510" y="750" as="sourcePoint" />
            <mxPoint x="830" y="220" as="targetPoint" />
            <Array as="points">
              <mxPoint x="830" y="751" />
              <mxPoint x="830" y="670" />
            </Array>
          </mxGeometry>
        </mxCell>
        <mxCell id="Ixsyqqn0YIwXnsIAuVxs-20" value="" style="endArrow=none;html=1;rounded=0;exitX=1;exitY=0.5;exitDx=0;exitDy=0;edgeStyle=orthogonalEdgeStyle;" edge="1" parent="1">
          <mxGeometry width="50" height="50" relative="1" as="geometry">
            <mxPoint x="510" y="830" as="sourcePoint" />
            <mxPoint x="740" y="750" as="targetPoint" />
          </mxGeometry>
        </mxCell>
        <mxCell id="Ixsyqqn0YIwXnsIAuVxs-21" value="" style="endArrow=none;html=1;rounded=0;exitX=1;exitY=0.5;exitDx=0;exitDy=0;edgeStyle=orthogonalEdgeStyle;" edge="1" parent="1">
          <mxGeometry width="50" height="50" relative="1" as="geometry">
            <mxPoint x="510" y="909.73" as="sourcePoint" />
            <mxPoint x="740" y="829.73" as="targetPoint" />
            <Array as="points">
              <mxPoint x="510" y="880" />
              <mxPoint x="741" y="880" />
              <mxPoint x="741" y="830" />
            </Array>
          </mxGeometry>
        </mxCell>
        <mxCell id="Ixsyqqn0YIwXnsIAuVxs-22" value="" style="endArrow=none;html=1;rounded=0;exitX=1;exitY=0.5;exitDx=0;exitDy=0;edgeStyle=orthogonalEdgeStyle;" edge="1" parent="1">
          <mxGeometry width="50" height="50" relative="1" as="geometry">
            <mxPoint x="510" y="990" as="sourcePoint" />
            <mxPoint x="740" y="880" as="targetPoint" />
          </mxGeometry>
        </mxCell>
        <mxCell id="Ixsyqqn0YIwXnsIAuVxs-24" value="" style="endArrow=none;html=1;rounded=0;exitX=1;exitY=0.5;exitDx=0;exitDy=0;edgeStyle=orthogonalEdgeStyle;" edge="1" parent="1">
          <mxGeometry width="50" height="50" relative="1" as="geometry">
            <mxPoint x="510" y="110" as="sourcePoint" />
            <mxPoint x="830" y="170" as="targetPoint" />
            <Array as="points">
              <mxPoint x="830" y="111" />
              <mxPoint x="830" y="30" />
            </Array>
          </mxGeometry>
        </mxCell>
        <mxCell id="Ixsyqqn0YIwXnsIAuVxs-25" value="" style="endArrow=none;html=1;rounded=0;edgeStyle=orthogonalEdgeStyle;" edge="1" parent="1">
          <mxGeometry width="50" height="50" relative="1" as="geometry">
            <mxPoint x="510" y="26" as="sourcePoint" />
            <mxPoint x="690" y="110" as="targetPoint" />
            <Array as="points">
              <mxPoint x="690" y="26" />
            </Array>
          </mxGeometry>
        </mxCell>
        <mxCell id="Ixsyqqn0YIwXnsIAuVxs-26" value="" style="endArrow=none;html=1;rounded=0;edgeStyle=orthogonalEdgeStyle;" edge="1" parent="1">
          <mxGeometry width="50" height="50" relative="1" as="geometry">
            <mxPoint x="510" y="-54" as="sourcePoint" />
            <mxPoint x="690" y="30" as="targetPoint" />
            <Array as="points">
              <mxPoint x="690" y="-54" />
            </Array>
          </mxGeometry>
        </mxCell>
        <mxCell id="Ixsyqqn0YIwXnsIAuVxs-27" value="" style="endArrow=none;html=1;rounded=0;edgeStyle=orthogonalEdgeStyle;" edge="1" parent="1">
          <mxGeometry width="50" height="50" relative="1" as="geometry">
            <mxPoint x="510" y="-134" as="sourcePoint" />
            <mxPoint x="690" y="-50" as="targetPoint" />
            <Array as="points">
              <mxPoint x="690" y="-134" />
            </Array>
          </mxGeometry>
        </mxCell>
        <mxCell id="Ixsyqqn0YIwXnsIAuVxs-28" value="" style="endArrow=none;html=1;rounded=0;edgeStyle=orthogonalEdgeStyle;" edge="1" parent="1">
          <mxGeometry width="50" height="50" relative="1" as="geometry">
            <mxPoint x="510" y="-214" as="sourcePoint" />
            <mxPoint x="690" y="-130" as="targetPoint" />
            <Array as="points">
              <mxPoint x="690" y="-214" />
            </Array>
          </mxGeometry>
        </mxCell>
        <mxCell id="Ixsyqqn0YIwXnsIAuVxs-29" value="" style="endArrow=none;html=1;rounded=0;edgeStyle=orthogonalEdgeStyle;exitX=1;exitY=0.5;exitDx=0;exitDy=0;" edge="1" parent="1" source="La6jZJayL8-oUf0QyG6G-8">
          <mxGeometry width="50" height="50" relative="1" as="geometry">
            <mxPoint x="510" y="-290" as="sourcePoint" />
            <mxPoint x="690" y="-194" as="targetPoint" />
            <Array as="points">
              <mxPoint x="510" y="-278" />
              <mxPoint x="690" y="-278" />
            </Array>
          </mxGeometry>
        </mxCell>
        <mxCell id="Ixsyqqn0YIwXnsIAuVxs-30" value="" style="endArrow=none;html=1;rounded=0;edgeStyle=orthogonalEdgeStyle;exitX=1;exitY=0.5;exitDx=0;exitDy=0;" edge="1" parent="1">
          <mxGeometry width="50" height="50" relative="1" as="geometry">
            <mxPoint x="510" y="-373" as="sourcePoint" />
            <mxPoint x="690" y="-273" as="targetPoint" />
            <Array as="points">
              <mxPoint x="510" y="-357" />
              <mxPoint x="690" y="-357" />
            </Array>
          </mxGeometry>
        </mxCell>
        <mxCell id="Ixsyqqn0YIwXnsIAuVxs-31" value="" style="endArrow=none;html=1;rounded=0;edgeStyle=orthogonalEdgeStyle;" edge="1" parent="1">
          <mxGeometry width="50" height="50" relative="1" as="geometry">
            <mxPoint x="510" y="-453" as="sourcePoint" />
            <mxPoint x="690" y="-350" as="targetPoint" />
            <Array as="points">
              <mxPoint x="690" y="-453" />
            </Array>
          </mxGeometry>
        </mxCell>
        <mxCell id="Ixsyqqn0YIwXnsIAuVxs-32" value="" style="endArrow=none;html=1;rounded=0;exitX=1;exitY=0.5;exitDx=0;exitDy=0;edgeStyle=orthogonalEdgeStyle;" edge="1" parent="1" source="La6jZJayL8-oUf0QyG6G-39">
          <mxGeometry width="50" height="50" relative="1" as="geometry">
            <mxPoint x="740" y="-570" as="sourcePoint" />
            <mxPoint x="830" y="110" as="targetPoint" />
            <Array as="points">
              <mxPoint x="510" y="-570" />
              <mxPoint x="831" y="-570" />
              <mxPoint x="831" y="110" />
            </Array>
          </mxGeometry>
        </mxCell>
        <mxCell id="Ixsyqqn0YIwXnsIAuVxs-33" value="" style="endArrow=none;html=1;rounded=0;edgeStyle=orthogonalEdgeStyle;" edge="1" parent="1">
          <mxGeometry width="50" height="50" relative="1" as="geometry">
            <mxPoint x="510" y="-670" as="sourcePoint" />
            <mxPoint x="690" y="-570" as="targetPoint" />
            <Array as="points">
              <mxPoint x="690" y="-670" />
            </Array>
          </mxGeometry>
        </mxCell>
        <mxCell id="Ixsyqqn0YIwXnsIAuVxs-34" value="" style="endArrow=none;html=1;rounded=0;edgeStyle=orthogonalEdgeStyle;" edge="1" parent="1">
          <mxGeometry width="50" height="50" relative="1" as="geometry">
            <mxPoint x="510" y="-750" as="sourcePoint" />
            <mxPoint x="690" y="-666" as="targetPoint" />
            <Array as="points">
              <mxPoint x="690" y="-750" />
            </Array>
          </mxGeometry>
        </mxCell>
        <mxCell id="Ixsyqqn0YIwXnsIAuVxs-35" value="" style="endArrow=none;html=1;rounded=0;edgeStyle=orthogonalEdgeStyle;" edge="1" parent="1">
          <mxGeometry width="50" height="50" relative="1" as="geometry">
            <mxPoint x="510" y="-830" as="sourcePoint" />
            <mxPoint x="690" y="-746" as="targetPoint" />
            <Array as="points">
              <mxPoint x="690" y="-830" />
            </Array>
          </mxGeometry>
        </mxCell>
        <mxCell id="Ixsyqqn0YIwXnsIAuVxs-36" value="" style="endArrow=none;html=1;rounded=0;edgeStyle=orthogonalEdgeStyle;" edge="1" parent="1">
          <mxGeometry width="50" height="50" relative="1" as="geometry">
            <mxPoint x="510" y="-910" as="sourcePoint" />
            <mxPoint x="690" y="-826" as="targetPoint" />
            <Array as="points">
              <mxPoint x="690" y="-910" />
            </Array>
          </mxGeometry>
        </mxCell>
        <mxCell id="Ixsyqqn0YIwXnsIAuVxs-37" value="" style="endArrow=none;html=1;rounded=0;edgeStyle=orthogonalEdgeStyle;" edge="1" parent="1">
          <mxGeometry width="50" height="50" relative="1" as="geometry">
            <mxPoint x="510" y="-990" as="sourcePoint" />
            <mxPoint x="690" y="-906" as="targetPoint" />
            <Array as="points">
              <mxPoint x="690" y="-990" />
            </Array>
          </mxGeometry>
        </mxCell>
        <mxCell id="Ixsyqqn0YIwXnsIAuVxs-38" value="" style="endArrow=none;html=1;rounded=0;edgeStyle=orthogonalEdgeStyle;" edge="1" parent="1">
          <mxGeometry width="50" height="50" relative="1" as="geometry">
            <mxPoint x="510" y="-1070" as="sourcePoint" />
            <mxPoint x="690" y="-986" as="targetPoint" />
            <Array as="points">
              <mxPoint x="690" y="-1070" />
            </Array>
          </mxGeometry>
        </mxCell>
      </root>
    </mxGraphModel>
  </diagram>
</mxfile>
